<mxfile host="app.diagrams.net" agent="Mozilla/5.0 (Macintosh; Intel Mac OS X 10_15_7) AppleWebKit/605.1.15 (KHTML, like Gecko) Version/18.4 Safari/605.1.15" version="28.2.0">
  <diagram name="Topology" id="GJPdqXTEIujDEkkYgOL9">
    <mxGraphModel dx="976" dy="671" grid="1" gridSize="10" guides="1" tooltips="1" connect="1" arrows="1" fold="1" page="1" pageScale="1" pageWidth="850" pageHeight="1100" math="0" shadow="0">
      <root>
        <mxCell id="0" />
        <mxCell id="1" parent="0" />
        <mxCell id="e-wsHXARvFZ_0XVeaTB9-1" value="R1&#xa;AS 65000" style="shape=ellipse;whiteSpace=wrap;html=1;aspect=fixed;perimeter=ellipsePerimeter;fontSize=14;fillColor=#dae8fc;strokeColor=#6c8ebf" parent="1" vertex="1">
          <mxGeometry x="300" y="340" width="80" height="80" as="geometry" />
        </mxCell>
        <mxCell id="e-wsHXARvFZ_0XVeaTB9-2" value="R2&#xa;AS 65000" style="shape=ellipse;whiteSpace=wrap;html=1;aspect=fixed;perimeter=ellipsePerimeter;fontSize=14;fillColor=#dae8fc;strokeColor=#6c8ebf" parent="1" vertex="1">
          <mxGeometry x="500" y="240" width="80" height="80" as="geometry" />
        </mxCell>
        <mxCell id="e-wsHXARvFZ_0XVeaTB9-3" value="R3&#xa;AS 65000" style="shape=ellipse;whiteSpace=wrap;html=1;aspect=fixed;perimeter=ellipsePerimeter;fontSize=14;fillColor=#dae8fc;strokeColor=#6c8ebf" parent="1" vertex="1">
          <mxGeometry x="700" y="240" width="80" height="80" as="geometry" />
        </mxCell>
        <mxCell id="e-wsHXARvFZ_0XVeaTB9-4" value="R4&#xa;AS 65000" style="shape=ellipse;whiteSpace=wrap;html=1;aspect=fixed;perimeter=ellipsePerimeter;fontSize=14;fillColor=#dae8fc;strokeColor=#6c8ebf" parent="1" vertex="1">
          <mxGeometry x="900" y="340" width="80" height="80" as="geometry" />
        </mxCell>
        <mxCell id="e-wsHXARvFZ_0XVeaTB9-5" value="R5&#xa;ISP-A&#xa;AS 65100" style="shape=ellipse;whiteSpace=wrap;html=1;aspect=fixed;perimeter=ellipsePerimeter;fontSize=14;fillColor=#ffe6cc;strokeColor=#d79b00" parent="1" vertex="1">
          <mxGeometry x="200" y="160" width="90" height="90" as="geometry" />
        </mxCell>
        <mxCell id="e-wsHXARvFZ_0XVeaTB9-6" value="R6&#xa;ISP-B&#xa;AS 65200" style="shape=ellipse;whiteSpace=wrap;html=1;aspect=fixed;perimeter=ellipsePerimeter;fontSize=14;fillColor=#ffe6cc;strokeColor=#d79b00" parent="1" vertex="1">
          <mxGeometry x="1000" y="160" width="90" height="90" as="geometry" />
        </mxCell>
        <mxCell id="e-wsHXARvFZ_0XVeaTB9-7" value="LAN-A&#xa;10.10.10.0/24&#xa;GW: 10.10.10.1" style="rounded=1;whiteSpace=wrap;html=1;fillColor=#d5e8d4;strokeColor=#82b366;fontSize=13" parent="1" vertex="1">
          <mxGeometry x="250" y="480" width="180" height="70" as="geometry" />
        </mxCell>
        <mxCell id="e-wsHXARvFZ_0XVeaTB9-8" value="LAN-B&#xa;10.20.20.0/24&#xa;GW: 10.20.20.1" style="rounded=1;whiteSpace=wrap;html=1;fillColor=#d5e8d4;strokeColor=#82b366;fontSize=13" parent="1" vertex="1">
          <mxGeometry x="850" y="480" width="180" height="70" as="geometry" />
        </mxCell>
        <mxCell id="e-wsHXARvFZ_0XVeaTB9-9" value="192.0.2.0/30" style="endArrow=block;html=1;rounded=0;strokeWidth=2;fontSize=12" parent="1" source="e-wsHXARvFZ_0XVeaTB9-1" target="e-wsHXARvFZ_0XVeaTB9-2" edge="1">
          <mxGeometry relative="1" as="geometry">
            <mxPoint x="430" y="320" as="targetPoint" />
          </mxGeometry>
        </mxCell>
        <mxCell id="e-wsHXARvFZ_0XVeaTB9-10" value="192.0.2.4/30" style="endArrow=block;html=1;rounded=0;strokeWidth=2;fontSize=12" parent="1" source="e-wsHXARvFZ_0XVeaTB9-2" target="e-wsHXARvFZ_0XVeaTB9-3" edge="1">
          <mxGeometry relative="1" as="geometry" />
        </mxCell>
        <mxCell id="e-wsHXARvFZ_0XVeaTB9-11" value="192.0.2.8/30" style="endArrow=block;html=1;rounded=0;strokeWidth=2;fontSize=12" parent="1" source="e-wsHXARvFZ_0XVeaTB9-3" target="e-wsHXARvFZ_0XVeaTB9-4" edge="1">
          <mxGeometry relative="1" as="geometry">
            <mxPoint x="860" y="320" as="targetPoint" />
          </mxGeometry>
        </mxCell>
        <mxCell id="e-wsHXARvFZ_0XVeaTB9-12" value="203.0.113.0/30 (eBGP)" style="endArrow=block;html=1;rounded=0;strokeWidth=2;dashed=1;fontSize=12;strokeColor=#d79b00" parent="1" source="e-wsHXARvFZ_0XVeaTB9-1" target="e-wsHXARvFZ_0XVeaTB9-5" edge="1">
          <mxGeometry relative="1" as="geometry" />
        </mxCell>
        <mxCell id="e-wsHXARvFZ_0XVeaTB9-13" value="203.0.113.4/30 (eBGP)" style="endArrow=block;html=1;rounded=0;strokeWidth=2;dashed=1;fontSize=12;strokeColor=#d79b00" parent="1" source="e-wsHXARvFZ_0XVeaTB9-4" target="e-wsHXARvFZ_0XVeaTB9-6" edge="1">
          <mxGeometry relative="1" as="geometry" />
        </mxCell>
        <mxCell id="e-wsHXARvFZ_0XVeaTB9-14" value="10.10.10.0/24" style="endArrow=none;html=1;rounded=0;strokeWidth=2;fontSize=12;strokeColor=#82b366" parent="1" source="e-wsHXARvFZ_0XVeaTB9-1" target="e-wsHXARvFZ_0XVeaTB9-7" edge="1">
          <mxGeometry relative="1" as="geometry" />
        </mxCell>
        <mxCell id="e-wsHXARvFZ_0XVeaTB9-15" value="10.20.20.0/24" style="endArrow=none;html=1;rounded=0;strokeWidth=2;fontSize=12;strokeColor=#82b366" parent="1" source="e-wsHXARvFZ_0XVeaTB9-4" target="e-wsHXARvFZ_0XVeaTB9-8" edge="1">
          <mxGeometry relative="1" as="geometry" />
        </mxCell>
        <mxCell id="e-wsHXARvFZ_0XVeaTB9-16" value="OSPF Area 0 Backbone" style="text;html=1;strokeColor=none;fillColor=none;align=center;verticalAlign=middle;fontSize=16;fontStyle=1" parent="1" vertex="1">
          <mxGeometry x="500" y="180" width="280" height="30" as="geometry" />
        </mxCell>
        <mxCell id="e-wsHXARvFZ_0XVeaTB9-17" value="eBGP to ISP-A" style="text;html=1;strokeColor=none;fillColor=none;align=left;verticalAlign=middle;fontSize=13" parent="1" vertex="1">
          <mxGeometry x="210" y="120" width="180" height="20" as="geometry" />
        </mxCell>
        <mxCell id="e-wsHXARvFZ_0XVeaTB9-18" value="eBGP to ISP-B (optional)" style="text;html=1;strokeColor=none;fillColor=none;align=right;verticalAlign=middle;fontSize=13" parent="1" vertex="1">
          <mxGeometry x="880" y="120" width="230" height="20" as="geometry" />
        </mxCell>
      </root>
    </mxGraphModel>
  </diagram>
</mxfile>
